<?xml version="1.0" encoding="UTF-8"?>
<svg id="Layer_1" data-name="Layer 1" xmlns="http://www.w3.org/2000/svg" viewBox="0 0 90 90">
  <path d="M45,1c24.26,0,44,19.74,44,44s-19.74,44-44,44S1,69.26,1,45,20.74,1,45,1M45,0C20.15,0,0,20.15,0,45s20.15,45,45,45,45-20.15,45-45S69.85,0,45,0h0Z"/>
  <path d="M45,10.42c19.07,0,34.58,15.51,34.58,34.58s-15.51,34.58-34.58,34.58S10.42,64.07,10.42,45,25.93,10.42,45,10.42M45,9.42c-19.65,0-35.58,15.93-35.58,35.58s15.93,35.58,35.58,35.58,35.58-15.93,35.58-35.58S64.65,9.42,45,9.42h0Z"/>
</svg>